# xmcd
#
# Track frame offsets:
#	150
#	14187
#	32665
#	46218
#	63819
#	80673
#	96926
#	113908
#	130135
#	144042
#	159860
#	182391
#	200841
#	218236
#	232417
#	248504
#	261060
#
# Disc length: 3708 seconds
#
# Revision: 1
# Processed by: cddbd v1.5.2PL0 Copyright (c) Steve Scherf et al.
# Submitted via: audiograbber 1.83.01
#
DISCID=e80e7a11
DTITLE=JonesTM - HC200801
DYEAR=2008
DGENRE=Country
TTITLE0=Ennis - Give Me Love
TTITLE1=Charlie Allen - See If I Care
TTITLE2=Sarah Johns - He Hates Me
TTITLE3=Roys - Grandpa's Barn [Radio Edit]
TTITLE4=Trace Adkins - You're Gonna Miss This
TTITLE5=Carter's Chord - Young Love [Single Edit]
TTITLE6=Josh Turner Feat. Trisha Yearwood - Another Try [Album Version]
TTITLE7=Rissi Palmer - Hold On To Me [Single Edit]
TTITLE8=Trisha Yearwood - This Is Me You're Talking To [Radio Edit]
TTITLE9=Angie Stone - Sometimes [Album Version]
TTITLE10=Michael McDonald - Love T.K.O.
TTITLE11=Tom Braxton Feat. Brian Simpson - Escape [Radio Edit]
TTITLE12=Rick Braun and Richard Elliot - Better Times [Radio Edit]
TTITLE13=Jessy J - Tequila Moon [Radio Edit-Short Version]
TTITLE14=Jessy J - Tequila Moon [Radio Edit-Long Version]
TTITLE15=Michael McDonald - Walk On By
TTITLE16=Les Sabler - Club Street
EXTD=
EXTT0=
EXTT1=
EXTT2=
EXTT3=
EXTT4=
EXTT5=
EXTT6=
EXTT7=
EXTT8=
EXTT9=
EXTT10=
EXTT11=
EXTT12=
EXTT13=
EXTT14=
EXTT15=
EXTT16=
PLAYORDER=
